<?xml version="1.0" standalone="no"?>
<!DOCTYPE svg PUBLIC "-//W3C//DTD SVG 20010904//EN"
 "http://www.w3.org/TR/2001/REC-SVG-20010904/DTD/svg10.dtd">
<svg version="1.0" xmlns="http://www.w3.org/2000/svg"
 width="200.000000pt" height="100.000000pt" viewBox="0 0 480.000000 290.000000"
 preserveAspectRatio="xMidYMid meet">

<g transform="translate(0.000000,290.000000) scale(0.100000,-0.100000)"
fill="#d2dae2  " stroke="none">
<path d="M2620 2392 c-8 -2 -27 -16 -42 -29 -14 -14 -31 -22 -37 -19 -18 12
-101 -16 -131 -44 -24 -23 -30 -36 -30 -70 0 -36 6 -48 36 -76 19 -19 31 -34
25 -34 -16 0 -43 -59 -36 -79 10 -31 58 -44 138 -38 40 4 78 2 86 -2 51 -32
-113 -68 -184 -41 -20 8 -26 7 -23 -2 11 -33 137 -32 215 2 48 21 69 55 59 94
-9 34 -53 45 -161 38 -72 -4 -87 -3 -83 9 3 9 27 17 63 21 67 9 98 26 126 71
26 43 17 84 -26 123 -37 33 -33 54 12 54 13 0 23 4 23 9 0 14 -12 19 -30 13z
m-35 -76 c56 -24 72 -81 35 -128 -19 -25 -76 -55 -86 -46 -4 5 -34 162 -34
181 0 12 48 8 85 -7z"/>
<path d="M3356 2195 c-38 -102 -67 -187 -65 -189 19 -17 211 -76 246 -76 81 0
133 48 133 122 0 37 -33 98 -52 98 -7 0 -1 10 14 23 40 32 46 77 16 110 -19
22 -187 97 -217 97 -3 0 -37 -83 -75 -185z m244 105 c59 -30 67 -82 17 -115
-19 -12 -31 -13 -51 -6 -42 17 -30 -4 15 -24 51 -24 70 -51 71 -105 0 -50 -28
-85 -81 -100 -34 -9 -56 -7 -118 11 l-31 10 30 82 c16 45 41 111 55 147 13 36
29 77 35 93 6 15 12 27 15 27 2 0 22 -9 43 -20z"/>
<path d="M2883 2360 c-45 -10 -80 -35 -104 -73 -16 -25 -19 -45 -16 -91 3 -54
7 -62 44 -97 62 -57 157 -65 218 -18 39 31 30 42 -11 14 -27 -18 -50 -25 -85
-25 l-49 0 0 43 c0 23 3 53 7 66 6 23 7 24 101 18 l95 -6 -7 47 c-7 55 -52
108 -100 117 -17 4 -38 8 -46 10 -8 1 -30 -1 -47 -5z m81 -16 c12 -5 16 -20
16 -63 0 -32 -2 -60 -4 -62 -3 -3 -23 -3 -45 -1 l-41 4 0 57 c0 32 3 61 7 64
8 9 46 9 67 1z"/>
<path d="M2112 2240 c-18 -11 -41 -34 -51 -51 -18 -29 -19 -30 -26 -10 -3 12
-10 21 -15 21 -12 0 -100 -38 -100 -44 0 -7 91 -238 101 -258 8 -16 13 -15 59
4 28 11 50 23 50 27 0 3 -18 51 -39 105 -40 101 -41 125 -9 163 27 33 43 13
92 -109 27 -68 50 -124 51 -126 3 -4 88 29 98 38 12 11 -82 239 -103 250 -29
16 -72 12 -108 -10z"/>
<path d="M1641 2161 c-30 -30 -28 -69 5 -77 37 -9 79 24 79 62 0 25 -4 29 -32
32 -22 2 -38 -3 -52 -17z"/>
<path d="M1734 2053 c-21 -14 -43 -29 -47 -33 -10 -9 140 -250 155 -250 6 0
30 12 53 27 l42 26 -70 111 c-38 61 -75 119 -81 128 -12 16 -15 15 -52 -9z"/>
<path d="M3793 2031 c-46 -29 -76 -93 -70 -149 5 -50 29 -87 77 -119 52 -36
92 -39 147 -12 152 76 106 286 -65 296 -44 3 -64 0 -89 -16z m190 -39 c103
-113 -16 -287 -156 -228 l-38 15 77 116 c43 63 82 115 89 115 7 0 19 -8 28
-18z"/>
<path d="M1343 1871 c-120 -103 -124 -76 33 -245 l137 -147 84 83 c95 93 113
121 113 173 0 91 -80 147 -164 115 -22 -8 -26 -7 -26 9 0 35 -39 71 -75 71
-28 0 -48 -12 -102 -59z m146 24 c18 -18 17 -62 -3 -84 -24 -27 -19 -38 7 -14
56 51 118 58 166 17 58 -48 49 -123 -23 -193 l-33 -32 -122 131 c-80 85 -121
135 -117 145 3 8 20 24 38 35 34 20 62 19 87 -5z"/>
<path d="M4141 1766 l-22 -94 -79 -7 c-44 -4 -80 -11 -80 -17 0 -6 28 -7 75
-3 l76 7 -6 -28 c-4 -16 -11 -43 -15 -61 -7 -29 -4 -36 35 -76 l44 -43 16 66
c37 152 26 136 102 146 42 6 68 14 71 23 3 10 0 12 -14 7 -11 -4 -40 -10 -66
-13 -54 -6 -54 -6 -37 63 12 45 11 46 -27 85 -21 21 -41 39 -45 39 -4 0 -16
-42 -28 -94z"/>
<path d="M2591 1688 c-93 -14 -195 -71 -276 -152 -71 -71 -84 -93 -162 -266
-42 -93 -83 -132 -168 -160 -70 -24 -70 -24 -675 -26 -599 -2 -606 -3 -664
-25 -72 -27 -148 -94 -182 -161 -36 -71 -46 -174 -42 -444 3 -221 5 -244 22
-263 25 -28 77 -28 102 0 18 19 19 44 24 323 3 203 9 308 17 321 19 32 76 83
108 96 22 9 190 12 635 14 543 2 611 4 665 19 146 43 221 111 291 264 25 53
52 111 61 127 37 70 152 165 224 185 52 15 507 22 586 10 87 -14 173 -60 222
-119 22 -26 66 -100 99 -166 92 -181 154 -243 295 -291 58 -20 96 -26 197 -28
139 -4 164 -11 216 -68 59 -62 59 -60 64 -374 5 -269 6 -294 24 -313 25 -28
77 -28 102 0 18 20 19 40 19 313 -1 283 -1 293 -24 351 -29 72 -113 164 -180
197 -38 19 -69 24 -186 29 -244 11 -305 50 -407 257 -90 184 -189 282 -338
332 -57 19 -89 22 -339 24 -152 2 -300 -1 -330 -6z"/>
<path d="M1210 1400 c-116 -8 -195 -37 -225 -84 -26 -39 -5 -125 35 -146 18
-10 237 -15 476 -12 143 2 161 11 174 82 11 62 -7 92 -72 124 -74 35 -210 48
-388 36z"/>
<path d="M2543 1381 c-52 -24 -77 -68 -77 -138 0 -57 17 -90 68 -127 26 -20
42 -21 335 -24 347 -3 365 0 415 61 25 32 30 47 30 91 0 43 -5 61 -28 91 -48
63 -60 65 -398 65 -276 0 -307 -2 -345 -19z"/>
<path d="M2720 910 c-159 -43 -266 -110 -362 -227 -58 -69 -49 -129 21 -146
21 -5 36 5 95 65 124 126 231 177 391 185 169 10 292 -39 433 -171 101 -95
115 -99 159 -51 28 31 20 61 -32 124 -87 104 -209 180 -355 220 -96 27 -255
27 -350 1z"/>
<path d="M883 819 c-54 -27 -85 -75 -85 -134 0 -59 27 -104 80 -134 52 -28
101 -29 144 -4 106 62 105 222 -2 275 -46 24 -86 23 -137 -3z"/>
</g>
</svg>
